<?xml version="1.0" standalone="no"?>
<!DOCTYPE svg PUBLIC "-//W3C//DTD SVG 20010904//EN"
 "http://www.w3.org/TR/2001/REC-SVG-20010904/DTD/svg10.dtd">
<svg version="1.0" xmlns="http://www.w3.org/2000/svg"
 width="1024.000000pt" height="1024.000000pt" viewBox="0 0 1024.000000 1024.000000"
 preserveAspectRatio="xMidYMid meet">

<g transform="translate(0.000000,1024.000000) scale(0.100000,-0.100000)"
fill="#000000" stroke="none">
<path d="M5752 8120 c-305 -43 -586 -190 -803 -418 -215 -226 -336 -507 -374
-870 l-7 -62 -116 -123 c-64 -67 -263 -275 -442 -462 -179 -187 -422 -441
-540 -565 -117 -124 -257 -270 -310 -325 -53 -55 -141 -147 -196 -205 -54 -57
-149 -156 -210 -220 -258 -268 -429 -452 -432 -465 -9 -39 151 -104 327 -134
68 -11 125 -22 127 -24 5 -4 -53 -71 -281 -322 -437 -483 -611 -680 -646 -734
-47 -73 -34 -120 38 -136 46 -9 218 35 348 90 188 80 505 249 1010 540 127 73
249 142 271 153 l42 21 178 -45 c402 -101 677 -139 1014 -138 453 0 762 68
1122 243 697 340 1140 1023 1270 1956 16 119 22 217 25 475 2 179 6 334 8 345
3 12 31 36 72 59 214 122 456 271 460 283 10 25 -18 41 -172 96 -83 30 -234
85 -337 123 l-187 68 -32 88 c-102 283 -316 508 -596 626 -132 56 -262 83
-423 87 -80 2 -173 0 -208 -5z m553 -759 c124 -57 176 -204 111 -315 -31 -53
-91 -101 -147 -117 -122 -37 -267 68 -277 201 -5 72 9 115 53 167 67 79 172
104 260 64z m-431 -1756 c-13 -180 -76 -411 -155 -566 -120 -240 -291 -432
-519 -584 -133 -89 -212 -129 -347 -175 -281 -97 -461 -125 -768 -117 -188 4
-222 8 -325 33 l-115 29 220 7 c121 4 238 11 260 17 22 6 78 17 125 26 272 51
513 148 750 302 371 242 670 620 806 1019 20 60 41 113 46 119 4 5 9 18 9 30
1 11 5 0 10 -25 4 -25 6 -76 3 -115z"/>
</g>
</svg>
